<svg width="25" height="25" viewBox="0 0 25 25" fill="none" xmlns="http://www.w3.org/2000/svg">
<path d="M5.20801 21.875C4.33995 21.875 3.6021 21.5711 2.99447 20.9635C2.38683 20.3559 2.08301 19.618 2.08301 18.75V11.4583C2.08301 10.5902 2.38683 9.85239 2.99447 9.24475C3.6021 8.63711 4.33995 8.33329 5.20801 8.33329C5.67676 8.33329 6.10662 8.42878 6.49759 8.61975C6.88856 8.81072 7.23092 9.06246 7.52467 9.37496H8.33301V4.16663H18.7497V9.37496H19.7913C20.6594 9.37496 21.3972 9.67878 22.0049 10.2864C22.6125 10.8941 22.9163 11.6319 22.9163 12.5V20.8333H7.52572C7.23058 21.1458 6.88787 21.3975 6.49759 21.5885C6.10731 21.7795 5.67745 21.875 5.20801 21.875ZM5.20801 19.7916C5.50315 19.7916 5.75072 19.6916 5.95072 19.4916C6.15072 19.2916 6.25037 19.0444 6.24967 18.75V11.4583C6.24967 11.1632 6.14967 10.9156 5.94967 10.7156C5.74967 10.5156 5.50245 10.4159 5.20801 10.4166C4.91287 10.4166 4.6653 10.5166 4.4653 10.7166C4.2653 10.9166 4.16565 11.1638 4.16634 11.4583V18.75C4.16634 19.0451 4.26634 19.2927 4.46634 19.4927C4.66634 19.6927 4.91356 19.7923 5.20801 19.7916ZM10.4163 9.37496H16.6663V6.24996H10.4163V9.37496ZM8.33301 18.75H20.833V12.5C20.833 12.2048 20.733 11.9573 20.533 11.7573C20.333 11.5573 20.0858 11.4576 19.7913 11.4583H8.33301V18.75ZM15.6247 14.5833C15.9198 14.5833 16.1674 14.4833 16.3674 14.2833C16.5674 14.0833 16.667 13.8361 16.6663 13.5416C16.6663 13.2465 16.5663 12.9989 16.3663 12.7989C16.1663 12.5989 15.9191 12.4993 15.6247 12.5C15.3295 12.5 15.082 12.6 14.882 12.8C14.682 13 14.5823 13.2472 14.583 13.5416C14.583 13.8368 14.683 14.0843 14.883 14.2843C15.083 14.4843 15.3302 14.584 15.6247 14.5833ZM18.7497 14.5833C19.0448 14.5833 19.2924 14.4833 19.4924 14.2833C19.6924 14.0833 19.792 13.8361 19.7913 13.5416C19.7913 13.2465 19.6913 12.9989 19.4913 12.7989C19.2913 12.5989 19.0441 12.4993 18.7497 12.5C18.4545 12.5 18.207 12.6 18.007 12.8C17.807 13 17.7073 13.2472 17.708 13.5416C17.708 13.8368 17.808 14.0843 18.008 14.2843C18.208 14.4843 18.4552 14.584 18.7497 14.5833ZM15.6247 17.7083C15.9198 17.7083 16.1674 17.6083 16.3674 17.4083C16.5674 17.2083 16.667 16.9611 16.6663 16.6666C16.6663 16.3715 16.5663 16.1239 16.3663 15.9239C16.1663 15.7239 15.9191 15.6243 15.6247 15.625C15.3295 15.625 15.082 15.725 14.882 15.925C14.682 16.125 14.5823 16.3722 14.583 16.6666C14.583 16.9618 14.683 17.2093 14.883 17.4093C15.083 17.6093 15.3302 17.709 15.6247 17.7083ZM18.7497 17.7083C19.0448 17.7083 19.2924 17.6083 19.4924 17.4083C19.6924 17.2083 19.792 16.9611 19.7913 16.6666C19.7913 16.3715 19.6913 16.1239 19.4913 15.9239C19.2913 15.7239 19.0441 15.6243 18.7497 15.625C18.4545 15.625 18.207 15.725 18.007 15.925C17.807 16.125 17.7073 16.3722 17.708 16.6666C17.708 16.9618 17.808 17.2093 18.008 17.4093C18.208 17.6093 18.4552 17.709 18.7497 17.7083ZM9.37467 17.7083H13.5413V12.5H9.37467V17.7083Z" fill="white"/>
</svg>
