<svg width="40" height="40" viewBox="0 0 40 40" fill="none" xmlns="http://www.w3.org/2000/svg">
<path d="M37.4331 9.99996C36.1497 10.5833 34.7664 10.9666 33.3331 11.15C34.7997 10.2666 35.9331 8.86663 36.4664 7.18329C35.0831 8.01663 33.5497 8.59996 31.9331 8.93329C30.6164 7.49996 28.7664 6.66663 26.6664 6.66663C22.7497 6.66663 19.5497 9.86663 19.5497 13.8166C19.5497 14.3833 19.6164 14.9333 19.7331 15.45C13.7997 15.15 8.51641 12.3 4.99974 7.98329C4.38307 9.03329 4.03307 10.2666 4.03307 11.5666C4.03307 14.05 5.28307 16.25 7.21641 17.5C6.03307 17.5 4.93307 17.1666 3.96641 16.6666V16.7166C3.96641 20.1833 6.43307 23.0833 9.69974 23.7333C8.65095 24.0203 7.5499 24.0602 6.48307 23.85C6.93575 25.2708 7.8223 26.514 9.0181 27.4048C10.2139 28.2957 11.6588 28.7894 13.1497 28.8166C10.6225 30.8174 7.48973 31.8988 4.26641 31.8833C3.69974 31.8833 3.13307 31.85 2.56641 31.7833C5.73307 33.8166 9.49974 35 13.5331 35C26.6664 35 33.8831 24.1 33.8831 14.65C33.8831 14.3333 33.8831 14.0333 33.8664 13.7166C35.2664 12.7166 36.4664 11.45 37.4331 9.99996Z" fill="white"/>
</svg>
