<svg width="47" height="43" viewBox="0 0 47 43" fill="none" xmlns="http://www.w3.org/2000/svg">
<g clip-path="url(#clip0_156_32)">
<path d="M5.87467 24.1876L4.40592 21.5001H14.6872L13.5122 18.8126H3.91634L2.44759 16.1251H17.7226L16.5476 13.4376H2.17342L0.489258 10.7501H7.83301C7.83301 9.79972 8.24566 8.88829 8.98017 8.21628C9.71469 7.54428 10.7109 7.16675 11.7497 7.16675H35.2497V14.3334H41.1247L46.9997 21.5001V30.4584H43.083C43.083 31.884 42.464 33.2511 41.3623 34.2591C40.2605 35.2671 38.7662 35.8334 37.208 35.8334C35.6499 35.8334 34.1555 35.2671 33.0538 34.2591C31.952 33.2511 31.333 31.884 31.333 30.4584H23.4997C23.4997 31.884 22.8807 33.2511 21.7789 34.2591C20.6772 35.2671 19.1828 35.8334 17.6247 35.8334C16.0665 35.8334 14.5722 35.2671 13.4704 34.2591C12.3686 33.2511 11.7497 31.884 11.7497 30.4584H7.83301V24.1876H5.87467ZM37.208 33.1459C37.9871 33.1459 38.7342 32.8628 39.2851 32.3588C39.836 31.8548 40.1455 31.1712 40.1455 30.4584C40.1455 29.7456 39.836 29.0621 39.2851 28.5581C38.7342 28.0541 37.9871 27.7709 37.208 27.7709C36.4289 27.7709 35.6818 28.0541 35.1309 28.5581C34.58 29.0621 34.2705 29.7456 34.2705 30.4584C34.2705 31.1712 34.58 31.8548 35.1309 32.3588C35.6818 32.8628 36.4289 33.1459 37.208 33.1459ZM40.1455 17.0209H35.2497V21.5001H43.9838L40.1455 17.0209ZM17.6247 33.1459C18.4037 33.1459 19.1509 32.8628 19.7018 32.3588C20.2527 31.8548 20.5622 31.1712 20.5622 30.4584C20.5622 29.7456 20.2527 29.0621 19.7018 28.5581C19.1509 28.0541 18.4037 27.7709 17.6247 27.7709C16.8456 27.7709 16.0984 28.0541 15.5475 28.5581C14.9967 29.0621 14.6872 29.7456 14.6872 30.4584C14.6872 31.1712 14.9967 31.8548 15.5475 32.3588C16.0984 32.8628 16.8456 33.1459 17.6247 33.1459Z" fill="#00992B"/>
</g>
<defs>
<clipPath id="clip0_156_32">
<rect width="47" height="43" fill="white"/>
</clipPath>
</defs>
</svg>
