<svg width="47" height="47" viewBox="0 0 47 47" fill="none" xmlns="http://www.w3.org/2000/svg">
<path fill-rule="evenodd" clip-rule="evenodd" d="M7.66634 23.0417C7.66634 16.4732 14.1888 10.5833 22.9997 10.5833C31.8106 10.5833 38.333 16.4732 38.333 23.0417C38.333 26.2712 36.5812 29.3916 33.4436 32.2742C30.8178 34.6854 27.3467 36.8053 23.5459 38.5264C23.4358 37.7014 23.1352 36.9134 22.6681 36.2245C21.9723 35.2374 20.9048 34.5627 19.496 34.3155C12.3334 33.0658 7.66634 28.6 7.66634 23.0417ZM22.9997 6.75C12.757 6.75 3.83301 13.7324 3.83301 23.0417C3.83301 31.1683 10.6353 36.6615 18.8367 38.0913C19.5401 38.214 19.7164 38.6395 19.7816 39.3084C19.8717 40.2016 19.6762 41.1561 20.0748 41.9917C20.5521 42.9922 21.7289 43.4388 22.7524 43.0287C27.6802 41.0583 32.4565 38.3846 36.0349 35.0975C39.6057 31.82 42.1663 27.7509 42.1663 23.0417C42.1663 13.7324 33.2423 6.75 22.9997 6.75ZM23.5133 18.94C23.2612 18.6376 22.922 18.4202 22.5419 18.3174C22.1618 18.2145 21.7592 18.2313 21.389 18.3653C21.0187 18.4993 20.6987 18.7441 20.4725 19.0664C20.2463 19.3888 20.1249 19.7729 20.1247 20.1667V25.9167C20.1247 26.425 20.3266 26.9125 20.6861 27.272C21.0455 27.6314 21.533 27.8333 22.0413 27.8333C22.5497 27.8333 23.0372 27.6314 23.3966 27.272C23.7561 26.9125 23.958 26.425 23.958 25.9167V25.4605L25.361 27.1433C25.6132 27.4457 25.9524 27.6631 26.3325 27.766C26.7126 27.8688 27.1151 27.8521 27.4854 27.718C27.8556 27.584 28.1756 27.3392 28.4018 27.0169C28.628 26.6946 28.7495 26.3104 28.7497 25.9167V20.1667C28.7497 19.6583 28.5477 19.1708 28.1883 18.8114C27.8289 18.4519 27.3413 18.25 26.833 18.25C26.3247 18.25 25.8372 18.4519 25.4777 18.8114C25.1183 19.1708 24.9163 19.6583 24.9163 20.1667V20.6228L23.5133 18.94ZM13.4163 20.1667C13.4163 19.6583 13.2144 19.1708 12.855 18.8114C12.4955 18.4519 12.008 18.25 11.4997 18.25C10.9913 18.25 10.5038 18.4519 10.1444 18.8114C9.78494 19.1708 9.58301 19.6583 9.58301 20.1667V25.9167C9.58301 26.425 9.78494 26.9125 10.1444 27.272C10.5038 27.6314 10.9913 27.8333 11.4997 27.8333H13.4163C13.9247 27.8333 14.4122 27.6314 14.7716 27.272C15.1311 26.9125 15.333 26.425 15.333 25.9167C15.333 25.4083 15.1311 24.9208 14.7716 24.5614C14.4122 24.2019 13.9247 24 13.4163 24V20.1667ZM17.2497 18.25C17.758 18.25 18.2455 18.4519 18.605 18.8114C18.9644 19.1708 19.1663 19.6583 19.1663 20.1667V25.9167C19.1663 26.425 18.9644 26.9125 18.605 27.272C18.2455 27.6314 17.758 27.8333 17.2497 27.8333C16.7413 27.8333 16.2538 27.6314 15.8944 27.272C15.5349 26.9125 15.333 26.425 15.333 25.9167V20.1667C15.333 19.6583 15.5349 19.1708 15.8944 18.8114C16.2538 18.4519 16.7413 18.25 17.2497 18.25ZM34.4997 22.0833H34.2428C34.412 22.3744 34.5011 22.705 34.5011 23.0417C34.5011 23.3783 34.412 23.709 34.2428 24H34.4997C35.008 24 35.4955 24.2019 35.855 24.5614C36.2144 24.9208 36.4163 25.4083 36.4163 25.9167C36.4163 26.425 36.2144 26.9125 35.855 27.272C35.4955 27.6314 35.008 27.8333 34.4997 27.8333H31.6247C31.1163 27.8333 30.6288 27.6314 30.2694 27.272C29.9099 26.9125 29.708 26.425 29.708 25.9167V20.1667C29.708 19.6583 29.9099 19.1708 30.2694 18.8114C30.6288 18.4519 31.1163 18.25 31.6247 18.25H34.4997C35.008 18.25 35.4955 18.4519 35.855 18.8114C36.2144 19.1708 36.4163 19.6583 36.4163 20.1667C36.4163 20.675 36.2144 21.1625 35.855 21.522C35.4955 21.8814 35.008 22.0833 34.4997 22.0833Z" fill="white"/>
</svg>
